<svg xmlns="http://www.w3.org/2000/svg" width="62.944" height="20.968" viewBox="0 0 62.944 20.968"><path d="M244.641-990.5a3.758,3.758,0,0,0-.208.683,3.266,3.266,0,0,1-2.85,2.248,5.521,5.521,0,0,1-2.574-.3,1.35,1.35,0,0,0-.721.055,5.4,5.4,0,0,1-.987.088q-4.694,0-9.387.005c-.272,0-.292-.085-.247-.31.069-.341.112-.687.16-1.032.018-.133.067-.184.214-.182,1.066.008,2.133.006,3.2,0a2.113,2.113,0,0,1,.515.1,19.239,19.239,0,0,0-.122-3.085,1.444,1.444,0,0,0-1.022-1.181,1.805,1.805,0,0,0-.493-.045c-.533,0-1.066-.006-1.6,0-.159,0-.219-.031-.191-.2.065-.4.115-.793.17-1.19.012-.085.038-.15.144-.147a13.527,13.527,0,0,1,2.718.107,3.016,3.016,0,0,1,2.368,2.533,14.485,14.485,0,0,1,.108,2.714c.009.39,0,.391.4.391,1.058,0,2.115-.011,3.173.008.266,0,.335-.121.361-.328a2.759,2.759,0,0,0,.009-.34q0-1.44,0-2.88a1.882,1.882,0,0,1,1.393-1.975,4.923,4.923,0,0,1,2.886-.178,3.294,3.294,0,0,1,2.531,2.787c.009.046-.017.109.055.129Zm-4.877-.614h.016c0,.505,0,1.01,0,1.516,0,.136.029.193.179.216a7.391,7.391,0,0,0,1.145.1,1.33,1.33,0,0,0,1.4-1.021,3.632,3.632,0,0,0,.045-1.934,1.223,1.223,0,0,0-1.268-1.053,3.715,3.715,0,0,0-1.165.12c-.384.109-.365.106-.351.494C239.778-992.163,239.763-991.64,239.763-991.118Z" transform="translate(-181.696 995.077)" fill="#000"/><path d="M434.975-728.115c-.627-.107-1.256-.2-1.879-.326a2.247,2.247,0,0,0-.821.1,5.14,5.14,0,0,1-2.206-.027,1.916,1.916,0,0,1-1.484-1.857,1.9,1.9,0,0,1,1.361-2.023,4.878,4.878,0,0,1,1.515-.252c.463-.009.926-.007,1.389,0,.13,0,.177-.027.182-.171.028-.836-.325-1.2-1.181-1.18a7.656,7.656,0,0,0-2.5.492c-.222.083-.313.063-.337-.193-.034-.364-.1-.724-.158-1.085-.017-.105.008-.15.117-.183a10.02,10.02,0,0,1,3.431-.612,3.883,3.883,0,0,1,1.3.255,1.972,1.972,0,0,1,1.273,1.651c.007.047-.015.108.051.133v.1c-.1.073-.05.177-.051.266Q434.974-730.569,434.975-728.115Zm-2.817-3.149a2.642,2.642,0,0,0-1.054.12.819.819,0,0,0-.475.852.743.743,0,0,0,.625.675,3.813,3.813,0,0,0,1.718-.215c.1-.023.075-.1.075-.169,0-.366-.006-.732,0-1.1,0-.149-.06-.172-.186-.167C432.649-731.259,432.431-731.264,432.158-731.264Z" transform="translate(-372.085 749.068)" fill="#000"/><path d="M550.191-689.3q0-2.454,0-4.907c0-.089-.046-.193.051-.266v5.184Z" transform="translate(-487.302 710.253)" fill="#000"/><path d="M-634.409-994.835q6.5,0,13.006-.006c.256,0,.314.067.314.317q-.014,4.123,0,8.246c0,.234-.053.306-.3.306q-13.032-.01-26.064,0c-.241,0-.284-.071-.283-.293q.011-4.136,0-8.272c0-.232.049-.3.3-.3Q-640.925-994.828-634.409-994.835Z" transform="translate(647.738 994.853)" fill="#008bce"/><path d="M-634.447-755.659q-6.5,0-13,.006c-.241,0-.3-.063-.3-.3q.013-4.148,0-8.3c0-.221.059-.269.274-.269q13.042.009,26.084,0c.23,0,.289.054.288.286q-.013,4.148,0,8.3c0,.239-.07.282-.292.281Q-627.919-755.664-634.447-755.659Z" transform="translate(647.746 776.621)" fill="#7faa2d"/><path d="M-71.871-985.051c-1.387-.034-2.908.037-4.428-.039a2.96,2.96,0,0,1-2.93-2.766,7.54,7.54,0,0,1,.147-2.933,3.079,3.079,0,0,1,3.033-2.309c.865-.011,1.731,0,2.6-.009.173,0,.2.045.171.207-.07.376-.126.756-.172,1.136-.018.145-.072.182-.213.18-.559-.008-1.119,0-1.678,0A1.5,1.5,0,0,0-77-990.306a6.129,6.129,0,0,0-.046,2.417,1.409,1.409,0,0,0,1.521,1.291c1.275.028,2.552.021,3.828.026q2.085.008,4.169.008a2.756,2.756,0,0,0,.443-.035.946.946,0,0,0,.84-1.048.945.945,0,0,0-.988-.909c-.83-.018-1.66.042-2.489-.038a2.046,2.046,0,0,1-2.016-1.777,2.214,2.214,0,0,1,1.55-2.621,5.425,5.425,0,0,1,1.729-.235c1.433,0,2.867,0,4.3-.005.2,0,.261.042.222.245-.067.35-.12.7-.162,1.058-.022.181-.088.238-.279.237-1.372-.01-2.744-.006-4.117,0a2.23,2.23,0,0,0-.547.038.8.8,0,0,0-.687.924.838.838,0,0,0,.871.828c.673.011,1.346,0,2.019,0a2.775,2.775,0,0,1,1.814.551,2.2,2.2,0,0,1,.824,1.736,2.212,2.212,0,0,1-2.087,2.472,9.093,9.093,0,0,1-1.305.092q-1.036,0-2.072,0Z" transform="translate(109.142 993.329)" fill="#000"/><path d="M-79-731.231c0-.864,0-1.728,0-2.591a1.062,1.062,0,0,1,.874-1.219,6.59,6.59,0,0,1,3.584-.216,1.156,1.156,0,0,1,.479.2c.21.179.39.11.611.025a4.745,4.745,0,0,1,3.126-.2,1.966,1.966,0,0,1,1.466,2.051c.043,1.578.014,3.158.02,4.737,0,.112-.03.153-.147.152-.594,0-1.189-.009-1.783,0-.19,0-.156-.111-.156-.22q0-2.068,0-4.136a1.9,1.9,0,0,0-.031-.415.746.746,0,0,0-.736-.626,2.5,2.5,0,0,0-1.149.2c-.11.046-.15.083-.091.2a1.031,1.031,0,0,1,.063.462c0,1.44,0,2.879,0,4.319,0,.173-.047.217-.216.214-.542-.011-1.084-.013-1.625,0-.193,0-.25-.04-.248-.241.01-1.309.005-2.617.005-3.926,0-.061,0-.122,0-.183.029-1.016-.57-1.124-1.257-1.03-.67.092-.668.108-.668.779,0,1.44-.007,2.879.007,4.319,0,.24-.069.288-.292.281-.541-.017-1.084-.012-1.625,0-.172,0-.22-.045-.219-.218C-79-729.416-79-730.324-79-731.231Z" transform="translate(108.86 749.047)" fill="#000"/><path d="M286.679-790.374q0,2.054,0,4.109c0,.122-.011.244-.014.366a.947.947,0,0,1-.693.913,5.554,5.554,0,0,1-1.525.342,6.254,6.254,0,0,1-2.135-.1,3.013,3.013,0,0,1-2.269-2.756,5.516,5.516,0,0,1,.253-2.448,2.666,2.666,0,0,1,2.437-1.793,4.2,4.2,0,0,1,1.6.194c.172.058.238.037.235-.171-.011-.872,0-1.745-.01-2.617,0-.186.049-.259.234-.286.56-.084,1.119-.174,1.674-.286.2-.04.216.021.216.187C286.677-793.271,286.679-791.823,286.679-790.374Zm-2.116,2.248v-1.256c0-.6,0-.6-.583-.72a1.342,1.342,0,0,0-1.816,1.072,3.753,3.753,0,0,0,.034,1.813,1.357,1.357,0,0,0,1.439,1.083c.247,0,.484-.069.725-.092.182-.017.206-.1.2-.251C284.559-787.027,284.563-787.577,284.563-788.126Z" transform="translate(-231.309 805.424)" fill="#000"/><path d="M142.327-730.777c0,.812-.006,1.623,0,2.435,0,.2-.033.251-.242.207-.588-.124-1.181-.228-1.774-.328a2.246,2.246,0,0,0-.718.111,5.388,5.388,0,0,1-1.951.039,1.953,1.953,0,0,1-1.757-1.955,1.97,1.97,0,0,1,1.675-2.083,9.257,9.257,0,0,1,2.292-.159c.539,0,.539,0,.478-.542a.812.812,0,0,0-.758-.769,6.359,6.359,0,0,0-2.6.345c-.2.059-.434.235-.58.138-.112-.074-.079-.37-.109-.567-.036-.241-.063-.484-.111-.723-.023-.117-.008-.165.116-.2a9.983,9.983,0,0,1,3.431-.609,4.175,4.175,0,0,1,1.181.21,2.066,2.066,0,0,1,1.417,2.046c0,.035,0,.07,0,.1q0,1.152,0,2.3Zm-2.855-.5a3.325,3.325,0,0,0-.961.075.819.819,0,0,0-.579.836.743.743,0,0,0,.646.738,3.8,3.8,0,0,0,1.69-.215c.116-.026.085-.117.085-.188,0-.357-.009-.714,0-1.071,0-.133-.032-.186-.174-.179C139.96-731.264,139.741-731.272,139.472-731.272Z" transform="translate(-94.754 749.076)" fill="#000"/></svg>