<svg xmlns="http://www.w3.org/2000/svg" width="65.224" height="50.309" viewBox="0 0 65.224 50.309"><path d="M-2347.461-1274.557h2.6c.023.066.082.047.128.05a19.555,19.555,0,0,1,2.62.357,19.99,19.99,0,0,1,8.36,3.863c-.405.356-.821.7-1.213,1.071a22.493,22.493,0,0,0-1.609,1.686,20.137,20.137,0,0,0-2.55,3.758,19.939,19.939,0,0,0-1.52,3.821,20.06,20.06,0,0,0-.745,4.738,19.472,19.472,0,0,0,.191,3.445,19.964,19.964,0,0,0,.7,3.143,19.838,19.838,0,0,0,1.876,4.246,20.3,20.3,0,0,0,2.681,3.572,24.187,24.187,0,0,0,2.2,2.019.635.635,0,0,1-.055.051,19.806,19.806,0,0,1-17.4,3.579,19.538,19.538,0,0,1-12.124-8.875,19.33,19.33,0,0,1-2.853-8.14,7.8,7.8,0,0,0-.139-1.166v-2.38c.067-.037.043-.1.047-.158a18.407,18.407,0,0,1,.6-3.686,19.833,19.833,0,0,1,9.371-12.276,19.578,19.578,0,0,1,7.748-2.579A5.684,5.684,0,0,0-2347.461-1274.557Z" transform="translate(2366.315 1274.557)" fill="#da0018"/><path d="M-1733.188-1274.557h2.446c.049.069.123.042.187.046a18.908,18.908,0,0,1,3.093.443,19.632,19.632,0,0,1,10.751,6.4,19.451,19.451,0,0,1,4.643,16.72,19.2,19.2,0,0,1-6.219,11.192,19.883,19.883,0,0,1-13.164,5.25,19.366,19.366,0,0,1-5.344-.6,19.894,19.894,0,0,1-7.514-3.682c.363-.3.741-.589,1.086-.91a20.889,20.889,0,0,0,3.135-3.6,20.219,20.219,0,0,0,2.144-4.118,20,20,0,0,0,1.28-6.168,19.358,19.358,0,0,0-.133-3.351,20.331,20.331,0,0,0-.858-3.854,19.916,19.916,0,0,0-1.77-3.882,20.252,20.252,0,0,0-2.682-3.573,25.977,25.977,0,0,0-2.192-2.032,18.546,18.546,0,0,1,2.6-1.729,20.053,20.053,0,0,1,7.419-2.406A5.344,5.344,0,0,0-1733.188-1274.557Z" transform="translate(1776.96 1274.557)" fill="#f68a0d"/><path d="M-1884.1-1193.211l.1.006a25.955,25.955,0,0,1,2.192,2.032,20.268,20.268,0,0,1,2.682,3.573,19.921,19.921,0,0,1,1.77,3.882,20.327,20.327,0,0,1,.858,3.854,19.346,19.346,0,0,1,.133,3.351,20,20,0,0,1-1.28,6.168,20.216,20.216,0,0,1-2.144,4.118,20.888,20.888,0,0,1-3.135,3.6c-.345.322-.723.608-1.086.91l-.08,0a24.14,24.14,0,0,1-2.2-2.019,20.293,20.293,0,0,1-2.682-3.572,19.835,19.835,0,0,1-1.876-4.245,19.962,19.962,0,0,1-.7-3.143,19.437,19.437,0,0,1-.191-3.445,20.053,20.053,0,0,1,.745-4.738,19.948,19.948,0,0,1,1.52-3.821,20.151,20.151,0,0,1,2.55-3.758,22.467,22.467,0,0,1,1.609-1.686C-1884.924-1192.51-1884.508-1192.855-1884.1-1193.211Z" transform="translate(1916.663 1197.481)" fill="#e54911"/><path d="M-2302.28-421.972a2.1,2.1,0,0,1,3.354.174,2.2,2.2,0,0,1,1.253-.851,2.7,2.7,0,0,1,1.308,0,1.871,1.871,0,0,1,1.467,1.833c.021,1.13,0,2.261.01,3.392,0,.136-.041.172-.173.168a8.554,8.554,0,0,0-.891,0c-.219.016-.244-.074-.244-.259,0-.979.012-1.958-.017-2.936a1.071,1.071,0,0,0-1.135-1.157,1.168,1.168,0,0,0-1.265,1.168c-.034.969-.027,1.94-.019,2.91,0,.227-.059.292-.282.273a4.761,4.761,0,0,0-.712,0c-.172.011-.21-.049-.209-.212.008-.911,0-1.823,0-2.734a2.074,2.074,0,0,0-.017-.353,1.1,1.1,0,0,0-1.244-1.048,1.181,1.181,0,0,0-1.184,1.281c-.013.945-.01,1.89,0,2.835,0,.2-.055.243-.241.231-.262-.016-.526-.01-.789,0-.122,0-.16-.034-.16-.156q.005-2.519,0-5.038c0-.131.035-.177.171-.172.28.01.561.009.84,0,.128,0,.187.025.175.166S-2302.28-422.176-2302.28-421.972Z" transform="translate(2306.763 467.444)" fill="#000"/><path d="M-1284.906-458.32c0-.866.008-1.673-.005-2.48,0-.215.039-.306.275-.283a3.842,3.842,0,0,0,.687,0c.209-.017.252.06.251.255-.007,1.84,0,3.68,0,5.52,0,.506,0,1.013,0,1.519,0,.141-.037.193-.185.188-.28-.011-.561-.011-.84,0-.149.006-.194-.047-.183-.188s0-.263,0-.434a2.216,2.216,0,0,1-2.487.6,2.506,2.506,0,0,1-1.792-1.955,2.782,2.782,0,0,1,1.5-3.258A2.353,2.353,0,0,1-1284.906-458.32Zm.111,2.029a1.611,1.611,0,0,0-2.294-1.565,1.747,1.747,0,0,0-.851,2.126,1.61,1.61,0,0,0,1.92,1.118A1.651,1.651,0,0,0-1284.795-456.291Z" transform="translate(1345.806 503.788)" fill="#000"/><path d="M-1490.588-422.023a.381.381,0,0,0,.013-.049c.018-.559.018-.559.6-.559.609,0,.609,0,.609.6,0,1.51,0,3.019,0,4.529,0,.187-.043.253-.238.239a7.056,7.056,0,0,0-.789,0c-.15.007-.193-.048-.182-.188s0-.263,0-.423a2.272,2.272,0,0,1-2.693.508,2.522,2.522,0,0,1-1.643-2.266,2.741,2.741,0,0,1,.971-2.506A2.472,2.472,0,0,1-1490.588-422.023Zm.125,2.077a1.613,1.613,0,0,0-2.306-1.573,1.75,1.75,0,0,0-.825,2.158,1.6,1.6,0,0,0,1.869,1.086A1.633,1.633,0,0,0-1490.462-419.946Z" transform="translate(1540.667 467.454)" fill="#000"/><path d="M-2115.824-417.98a2.435,2.435,0,0,1-3.082.349,2.836,2.836,0,0,1-1.249-2.844,2.656,2.656,0,0,1,2.007-2.258,2.243,2.243,0,0,1,2.293.635.778.778,0,0,0,.027-.392c-.016-.184.057-.23.231-.221.262.013.526.01.789,0,.14,0,.191.033.191.182q-.007,2.506,0,5.012c0,.133-.04.176-.174.172-.271-.009-.544-.015-.815,0-.186.011-.24-.057-.221-.229C-2115.814-417.687-2115.824-417.8-2115.824-417.98Zm.055-2.213a1.525,1.525,0,0,0-.876-1.378,1.575,1.575,0,0,0-1.7.139,1.808,1.808,0,0,0-.565,1.961,1.605,1.605,0,0,0,1.9,1.117A1.707,1.707,0,0,0-2115.769-420.193Z" transform="translate(2133.11 467.531)" fill="#000"/><path d="M-1787.439-419.522c-.586,0-1.172.009-1.757,0-.223-.005-.223.061-.167.244a1.577,1.577,0,0,0,1.825,1.013,2.529,2.529,0,0,0,1.147-.44c.111-.078.174-.093.253.038.121.2.26.394.392.589.044.065.081.113-.01.184-1.112.861-3.348,1.042-4.369-.443a2.988,2.988,0,0,1,.72-4.062,2.5,2.5,0,0,1,3.933,1.95c.019.235.008.473.033.707.022.2-.062.234-.243.23C-1786.267-419.529-1786.853-419.522-1787.439-419.522Zm-.535-1.012c.4,0,.8-.01,1.194,0,.194.007.2-.055.157-.217a1.267,1.267,0,0,0-1.319-1.055,1.409,1.409,0,0,0-1.394,1.1c-.033.138,0,.174.143.171C-1788.787-420.539-1788.381-420.534-1787.974-420.534Z" transform="translate(1820.839 467.531)" fill="#000"/><path d="M-1992.875-418.66a3.177,3.177,0,0,0,1.952.55,1.619,1.619,0,0,0,.8-.215.494.494,0,0,0,.263-.46c-.012-.192-.163-.282-.322-.356a3.719,3.719,0,0,0-1.163-.232,3.428,3.428,0,0,1-1-.269,1.48,1.48,0,0,1-.276-2.54,2.359,2.359,0,0,1,1.167-.45,4.377,4.377,0,0,1,2.425.37c.212.1.267.2.122.407s-.192.53-.379.637-.443-.147-.682-.209a2.956,2.956,0,0,0-1.4-.13.976.976,0,0,0-.394.162.415.415,0,0,0,.1.768,4.537,4.537,0,0,0,1.123.185,3.038,3.038,0,0,1,1.127.356,1.469,1.469,0,0,1,.186,2.434,2.535,2.535,0,0,1-1.377.528,4.255,4.255,0,0,1-2.645-.509c-.157-.09-.2-.158-.083-.321C-1993.164-418.176-1993.027-418.419-1992.875-418.66Z" transform="translate(2012.972 467.384)" fill="#000"/><path d="M-1886.672-447.3c0-.5-.006-.915,0-1.328,0-.149-.028-.212-.194-.2-.228.015-.459-.007-.687.007-.164.01-.2-.051-.193-.2a5.742,5.742,0,0,0,0-.683c-.011-.166.057-.2.205-.192.237.011.476,0,.713.006.124,0,.157-.036.156-.156-.007-.422,0-.844-.006-1.265,0-.153.036-.208.2-.2.271.013.544.012.815,0,.151-.007.186.05.183.188-.007.413.005.827-.007,1.24,0,.159.044.2.2.195.509-.01,1.019,0,1.528-.006.139,0,.2.029.19.181a6.351,6.351,0,0,1-.032.876c-.279.006-.558.013-.837.016s-.577,0-.866,0c-.1,0-.183,0-.18.141.016.818-.032,1.637.026,2.454a.675.675,0,0,0,.776.682,1.783,1.783,0,0,0,.854-.21c.121-.07.156-.03.19.08.075.24.147.482.239.715.045.113.026.164-.08.213a2.952,2.952,0,0,1-2.023.243,1.456,1.456,0,0,1-1.12-1.289A11.512,11.512,0,0,1-1886.672-447.3Z" transform="translate(1912.865 494.722)" fill="#000"/><path d="M-1592.165-418.909c.168.282.33.567.506.843.068.107.007.146-.063.2a2.615,2.615,0,0,1-1.259.493,3.208,3.208,0,0,1-2.173-.412,2.666,2.666,0,0,1-1.218-2.511,2.577,2.577,0,0,1,1.913-2.483,3.122,3.122,0,0,1,2.7.359c.141.094.154.172.059.293a.59.59,0,0,0-.042.063c-.128.217-.207.519-.4.629-.207.12-.412-.178-.633-.264a1.688,1.688,0,0,0-2.362,1.121,1.688,1.688,0,0,0,1.046,2.089,1.993,1.993,0,0,0,1.588-.213C-1592.389-418.764-1592.285-418.835-1592.165-418.909Z" transform="translate(1636.791 467.636)" fill="#000"/><path d="M-1666.765-422.016a1.9,1.9,0,0,1,2.013-.734c.156.017.161.094.12.216-.082.247-.171.493-.23.745-.039.164-.1.2-.262.158a1.74,1.74,0,0,0-.679-.069,1.111,1.111,0,0,0-.958,1.23q-.012,1.443,0,2.886c0,.21-.03.306-.271.281a5.351,5.351,0,0,0-.738,0c-.135,0-.2-.022-.2-.176q.008-2.507,0-5.013c0-.154.061-.181.2-.177.271.008.544.013.815,0,.169-.009.2.06.19.206C-1666.773-422.343-1666.765-422.217-1666.765-422.016Z" transform="translate(1704.622 467.492)" fill="#000"/><path d="M-1358.435-422.124a1.816,1.816,0,0,1,1.829-.692c.312.026.321.035.236.314-.066.217-.139.431-.2.65-.04.152-.091.237-.274.17a1.7,1.7,0,0,0-.4-.069,1.064,1.064,0,0,0-1.215,1.033c-.05.488-.023.977-.027,1.466,0,.565-.005,1.13,0,1.695,0,.145-.023.213-.192.2-.279-.015-.56-.009-.84,0-.117,0-.163-.027-.162-.153q.006-2.53,0-5.059c0-.128.049-.155.165-.152.271.006.543.011.814,0,.162-.007.236.033.215.207a2.847,2.847,0,0,0,0,.348Z" transform="translate(1412.514 467.54)" fill="#000"/></svg>