<svg xmlns="http://www.w3.org/2000/svg" width="68.942" height="22.273" viewBox="0 0 68.942 22.273"><path d="M-3144.417-978.521c-1.609,0-3.217-.007-4.826.007-.27,0-.371-.069-.42-.339-.162-.878-.363-1.748-.53-2.625-.04-.208-.1-.284-.325-.283q-3.326.013-6.653,0c-.218,0-.29.087-.354.269-.319.907-.65,1.809-.977,2.713-.05.138-.079.265-.291.263-1.85-.011-3.7-.007-5.55-.009a.4.4,0,0,1-.093-.036c.084-.209.167-.418.254-.626q3.98-9.481,7.953-18.966a2.813,2.813,0,0,1,2.831-1.922c1.39,0,2.781.006,4.171-.01.249,0,.331.079.378.309q1,4.842,2.017,9.681,1.178,5.647,2.355,11.294c.006.027.04.048.06.072Zm-8.427-15.714-2.967,8.075c1.512,0,2.969,0,4.427,0,.226,0,.193-.09.16-.247-.3-1.433-.594-2.868-.89-4.3C-3152.351-991.858-3152.59-993.011-3152.844-994.235Z" transform="translate(3213.359 1000.474)" fill="#000"/><path d="M-3447.371-1007.506c.547.091,1.1.175,1.642.277a12.366,12.366,0,0,1,1.986.552c.132.048.248.073.214.275-.24,1.411-.466,2.825-.7,4.237-.011.067-.035.132-.058.219a10.715,10.715,0,0,0-2.4-.834,8.459,8.459,0,0,0-3.889.023,2.419,2.419,0,0,0-1.171.689,1.3,1.3,0,0,0-.014,1.859,5.673,5.673,0,0,0,1.533,1.1,34.154,34.154,0,0,1,3.157,1.749,5.7,5.7,0,0,1,2.6,3.465,6.355,6.355,0,0,1-2.12,6.329,9.2,9.2,0,0,1-4.851,2.127,17.374,17.374,0,0,1-8.452-.78c-.3-.1-.37-.219-.314-.536.249-1.4.473-2.8.684-4.2.04-.264.123-.225.3-.142a12.262,12.262,0,0,0,3.736,1.245,8.6,8.6,0,0,0,3.555-.1,2.9,2.9,0,0,0,1.278-.715,1.588,1.588,0,0,0,.047-2.284,6.634,6.634,0,0,0-1.956-1.324,18.9,18.9,0,0,1-2.855-1.652,5.526,5.526,0,0,1-2.421-3.464,5.986,5.986,0,0,1,1.728-5.383,9.11,9.11,0,0,1,4.8-2.455,11.37,11.37,0,0,0,1.466-.273Z" transform="translate(3493.625 1007.506)" fill="#000"/><path d="M-3977.251-988.692c.327,1.047.442,2.141.708,3.213.129-.092.137-.236.181-.355q2.6-6.963,5.179-13.931a.39.39,0,0,1,.437-.311c1.746.012,3.493.006,5.239.006h.346c-.3.738-.58,1.436-.864,2.133q-3.888,9.537-7.771,19.075a.448.448,0,0,1-.5.339q-2.6-.024-5.2,0a.371.371,0,0,1-.44-.332q-2.421-9.159-4.859-18.314c-.006-.022-.013-.044-.021-.066.092.045.187.084.274.137a18.579,18.579,0,0,1,3.448,2.663A16.929,16.929,0,0,1-3977.251-988.692Z" transform="translate(3990.675 1000.466)" fill="#000"/><path d="M-3630.517-978.514c-.816,0-1.632-.013-2.447.007-.289.007-.338-.083-.294-.344.292-1.751.574-3.5.858-5.255q.707-4.357,1.413-8.714.563-3.476,1.118-6.953c.034-.211.1-.306.343-.3q2.5.019,5,0c.246,0,.3.044.255.3q-1.257,7.661-2.491,15.326c-.306,1.888-.612,3.775-.906,5.665-.035.223-.122.274-.331.271C-3628.839-978.52-3629.678-978.514-3630.517-978.514Z" transform="translate(3657.584 1000.466)" fill="#000"/><path d="M-4083-988.668a16.932,16.932,0,0,0-3.843-5.743,18.576,18.576,0,0,0-3.448-2.663c-.087-.052-.183-.091-.274-.137a15.494,15.494,0,0,0-2.759-1.381,22.9,22.9,0,0,0-2.867-.958c-.108-.029-.271-.015-.224-.222.039-.167.07-.28.3-.279,3,.014,6,0,8.993.028a2.2,2.2,0,0,1,2.339,2.023c.58,2.976,1.172,5.95,1.76,8.925A.843.843,0,0,1-4083-988.668Z" transform="translate(4096.428 1000.442)" fill="#f8920f"/></svg>